STARTFONT 2.1
FONT -FontForge-DavidisCrypto-Book-R-Normal--21-200-75-75-P-146-ISO10646-1
SIZE 20 75 75
FONTBOUNDINGBOX 15 15 0 -1
COMMENT "Generated by fontforge, http://fontforge.sourceforge.net"
COMMENT "Copyright (c) 2018 by David A. Slaager. All rights reserved."
STARTPROPERTIES 38
FOUNDRY "FontForge"
FAMILY_NAME "DavidisCrypto"
WEIGHT_NAME "Book"
SLANT "R"
SETWIDTH_NAME "Normal"
ADD_STYLE_NAME ""
PIXEL_SIZE 21
POINT_SIZE 200
RESOLUTION_X 75
RESOLUTION_Y 75
SPACING "P"
AVERAGE_WIDTH 146
CHARSET_REGISTRY "ISO10646"
CHARSET_ENCODING "1"
FONTNAME_REGISTRY ""
CHARSET_COLLECTIONS "ISO10646-1"
FONT_NAME "DavidisCrypto"
FACE_NAME "DavidisCrypto"
COPYRIGHT "Copyright (c) 2018 by David A. Slaager. All rights reserved."
FONT_VERSION "1.007"
FONT_ASCENT 16
FONT_DESCENT 5
UNDERLINE_POSITION -2
UNDERLINE_THICKNESS 2
CAP_HEIGHT 11
RAW_ASCENT 750
RAW_DESCENT 250
NORM_SPACE 11
RELATIVE_WEIGHT 40
RELATIVE_SETWIDTH 50
SUPERSCRIPT_X 0
SUPERSCRIPT_Y 10
SUPERSCRIPT_SIZE 13
SUBSCRIPT_X 0
SUBSCRIPT_Y 2
SUBSCRIPT_SIZE 13
AVG_LOWERCASE_WIDTH 146
AVG_UPPERCASE_WIDTH 148
ENDPROPERTIES
CHARS 43
STARTCHAR space
ENCODING 32
SWIDTH 500 0
DWIDTH 11 0
BBX 1 1 0 0
BITMAP
00
ENDCHAR
STARTCHAR dollar
ENCODING 36
SWIDTH 500 0
DWIDTH 11 0
BBX 1 1 0 0
BITMAP
00
ENDCHAR
STARTCHAR zero
ENCODING 48
SWIDTH 696 0
DWIDTH 15 0
BBX 11 11 2 2
BITMAP
1F00
7E80
6DC0
C0E0
C0E0
C0E0
E060
C0A0
E7C0
5F80
3F00
ENDCHAR
STARTCHAR one
ENCODING 49
SWIDTH 696 0
DWIDTH 15 0
BBX 8 13 3 1
BITMAP
08
18
1C
3E
76
9D
7F
BE
C9
36
1C
18
08
ENDCHAR
STARTCHAR two
ENCODING 50
SWIDTH 696 0
DWIDTH 15 0
BBX 11 13 2 1
BITMAP
8000
F800
C780
A140
5260
4DC0
4680
2900
2900
1A00
1C00
0C00
0800
ENDCHAR
STARTCHAR three
ENCODING 51
SWIDTH 696 0
DWIDTH 14 0
BBX 12 12 1 1
BITMAP
1FE0
1FF0
1830
1830
1830
FFE0
FFE0
0030
0030
1830
1FE0
1FC0
ENDCHAR
STARTCHAR four
ENCODING 52
SWIDTH 696 0
DWIDTH 15 0
BBX 13 9 1 3
BITMAP
8008
C018
B068
8888
8508
8508
8508
8508
8508
ENDCHAR
STARTCHAR five
ENCODING 53
SWIDTH 696 0
DWIDTH 15 0
BBX 11 11 2 2
BITMAP
3B00
FDC0
CE60
9760
B260
60C0
D1A0
9B60
CC60
E7C0
3380
ENDCHAR
STARTCHAR A
ENCODING 65
SWIDTH 696 0
DWIDTH 15 0
BBX 13 6 1 4
BITMAP
78E0
8510
8408
8610
CE60
79F0
ENDCHAR
STARTCHAR B
ENCODING 66
SWIDTH 696 0
DWIDTH 15 0
BBX 11 13 2 1
BITMAP
2C00
3400
3F80
FB80
3180
3380
3FC0
18C0
18E0
19C0
3F00
0B00
0E00
ENDCHAR
STARTCHAR C
ENCODING 67
SWIDTH 696 0
DWIDTH 15 0
BBX 14 13 0 1
BITMAP
0100
0020
0940
4208
36A0
0B80
AC4C
0440
0FA0
2508
0940
0000
1120
ENDCHAR
STARTCHAR D
ENCODING 68
SWIDTH 696 0
DWIDTH 15 0
BBX 12 7 1 4
BITMAP
1FF0
1FF0
2070
7870
7860
FFE0
7FC0
ENDCHAR
STARTCHAR E
ENCODING 69
SWIDTH 696 0
DWIDTH 15 0
BBX 8 13 3 1
BITMAP
08
18
1C
3C
3E
7F
FF
FF
5D
36
3C
18
08
ENDCHAR
STARTCHAR I
ENCODING 73
SWIDTH 696 0
DWIDTH 15 0
BBX 11 11 2 2
BITMAP
0060
0F60
1F00
3080
60C0
60C0
60C0
6180
1F80
DE00
C000
ENDCHAR
STARTCHAR L
ENCODING 76
SWIDTH 696 0
DWIDTH 15 0
BBX 10 13 2 1
BITMAP
0800
0400
0E00
1600
1B00
1B00
3180
31C0
60C0
E1C0
7380
3F00
1F00
ENDCHAR
STARTCHAR M
ENCODING 77
SWIDTH 696 0
DWIDTH 15 0
BBX 13 12 1 1
BITMAP
00C0
3E00
1FF0
42C0
3728
20E0
9FB0
2D60
2B00
0B00
1560
0A00
ENDCHAR
STARTCHAR N
ENCODING 78
SWIDTH 696 0
DWIDTH 14 0
BBX 10 12 2 1
BITMAP
0600
3F80
FF40
FBC0
F3C0
F3C0
F3C0
F3C0
F3C0
F040
7000
1000
ENDCHAR
STARTCHAR O
ENCODING 79
SWIDTH 696 0
DWIDTH 14 0
BBX 12 12 1 1
BITMAP
3CE0
C910
8610
8610
8910
70E0
7000
8800
8400
8400
8800
7000
ENDCHAR
STARTCHAR Q
ENCODING 81
SWIDTH 696 0
DWIDTH 15 0
BBX 13 11 1 2
BITMAP
1F00
7BC0
66E0
BDE0
DB60
FFF0
DB60
ACE0
77E0
5B60
3F98
ENDCHAR
STARTCHAR S
ENCODING 83
SWIDTH 696 0
DWIDTH 15 0
BBX 13 15 1 -1
BITMAP
00F0
01F8
0138
0310
0F30
3FF0
0FE0
0FC0
0FC0
0FC0
1C40
0040
4000
A000
C000
ENDCHAR
STARTCHAR T
ENCODING 84
SWIDTH 696 0
DWIDTH 15 0
BBX 13 12 1 1
BITMAP
7FE0
7FE0
0600
0600
7FF0
8618
7FE0
0600
0600
0600
0600
0600
ENDCHAR
STARTCHAR V
ENCODING 86
SWIDTH 696 0
DWIDTH 15 0
BBX 8 12 3 1
BITMAP
FF
7F
81
41
42
42
22
24
14
18
08
08
ENDCHAR
STARTCHAR X
ENCODING 88
SWIDTH 696 0
DWIDTH 15 0
BBX 12 10 1 2
BITMAP
E030
3040
1880
0F00
0000
0200
0F80
18C0
3060
E030
ENDCHAR
STARTCHAR Z
ENCODING 90
SWIDTH 696 0
DWIDTH 14 0
BBX 11 11 2 2
BITMAP
1F00
2080
4840
9E20
8620
8C20
9820
9E20
4840
2080
1F00
ENDCHAR
STARTCHAR a
ENCODING 97
SWIDTH 696 0
DWIDTH 15 0
BBX 11 13 2 1
BITMAP
0400
0C00
1600
1600
2500
2A80
5180
A140
A1C0
DA20
4440
3580
0E00
ENDCHAR
STARTCHAR b
ENCODING 98
SWIDTH 696 0
DWIDTH 15 0
BBX 10 13 2 1
BITMAP
0600
2580
3F00
1FC0
18C0
18C0
1FC0
3BC0
B0C0
F0C0
1F80
3C00
2800
ENDCHAR
STARTCHAR d
ENCODING 100
SWIDTH 696 0
DWIDTH 15 0
BBX 12 10 1 2
BITMAP
7FE0
7FF0
8070
1C70
1870
38E0
38C0
7380
7E00
E800
ENDCHAR
STARTCHAR e
ENCODING 101
SWIDTH 696 0
DWIDTH 15 0
BBX 9 13 3 1
BITMAP
1000
0800
3C00
5A00
5600
6600
A300
6300
6500
9500
FF80
5A00
3C00
ENDCHAR
STARTCHAR l
ENCODING 108
SWIDTH 500 0
DWIDTH 11 0
BBX 1 1 0 0
BITMAP
00
ENDCHAR
STARTCHAR m
ENCODING 109
SWIDTH 696 0
DWIDTH 15 0
BBX 11 11 2 2
BITMAP
1F00
3F80
7FC0
DF60
CE60
C460
D560
DB60
1F00
7FC0
1F00
ENDCHAR
STARTCHAR n
ENCODING 110
SWIDTH 696 0
DWIDTH 15 0
BBX 12 12 1 1
BITMAP
1FC0
7FF0
FDF0
7DF0
7DF0
38E0
6F60
3FC0
1FC0
1F80
0E00
0400
ENDCHAR
STARTCHAR o
ENCODING 111
SWIDTH 696 0
DWIDTH 15 0
BBX 12 11 1 2
BITMAP
8F80
DFC0
FFE0
F7F0
FBF0
FDF0
7EF0
7F70
7FB0
3FD0
0F10
ENDCHAR
STARTCHAR r
ENCODING 114
SWIDTH 696 0
DWIDTH 15 0
BBX 11 9 2 3
BITMAP
E780
33C0
7CE0
E060
C060
C0E0
E7C0
7980
3CE0
ENDCHAR
STARTCHAR s
ENCODING 115
SWIDTH 696 0
DWIDTH 15 0
BBX 12 13 1 1
BITMAP
0400
0400
4C40
4C40
CEC0
6660
6760
3730
3330
1390
11A0
6140
0200
ENDCHAR
STARTCHAR t
ENCODING 116
SWIDTH 696 0
DWIDTH 14 0
BBX 8 12 3 1
BITMAP
20
20
FF
22
24
24
3B
29
11
19
11
0E
ENDCHAR
STARTCHAR z
ENCODING 122
SWIDTH 696 0
DWIDTH 15 0
BBX 9 12 3 1
BITMAP
6000
F800
FE00
3F80
0F80
1F00
7D80
F180
E180
3980
0F80
0300
ENDCHAR
STARTCHAR Eth
ENCODING 208
SWIDTH 696 0
DWIDTH 15 0
BBX 11 11 2 2
BITMAP
7F00
7F80
61C0
60E0
6060
F860
6060
60E0
61C0
7FC0
7F00
ENDCHAR
STARTCHAR Lslash
ENCODING 321
SWIDTH 696 0
DWIDTH 15 0
BBX 9 10 3 2
BITMAP
1C00
3800
3800
3800
3C00
7800
F000
7000
FF80
FF80
ENDCHAR
STARTCHAR quoteleft
ENCODING 8216
SWIDTH 696 0
DWIDTH 15 0
BBX 14 6 1 4
BITMAP
0C0C
0C0C
3330
3330
C0C0
C0C0
ENDCHAR
STARTCHAR quoteright
ENCODING 8217
SWIDTH 696 0
DWIDTH 15 0
BBX 8 13 3 1
BITMAP
80
C0
E0
F0
F0
F4
B6
D7
E3
00
FB
F5
36
ENDCHAR
STARTCHAR quotedblleft
ENCODING 8220
SWIDTH 696 0
DWIDTH 15 0
BBX 12 11 1 2
BITMAP
1F80
2040
8020
8F20
9190
9090
9090
9090
8FA0
4040
3F80
ENDCHAR
STARTCHAR uniFB01
ENCODING 64257
SWIDTH 696 0
DWIDTH 15 0
BBX 11 11 2 2
BITMAP
0400
0E00
1F00
3380
A940
CC60
A7C0
3380
1F00
0E00
0400
ENDCHAR
STARTCHAR .notdef
ENCODING -1
SWIDTH 696 0
DWIDTH 15 0
BBX 8 11 3 2
BITMAP
3C
7F
7F
FF
FF
FD
7A
36
08
3C
FF
ENDCHAR
ENDFONT
